<svg width="65" height="64" viewBox="0 0 65 64" fill="none" xmlns="http://www.w3.org/2000/svg">
<path d="M25.4983 28.5V18.6328H32.6233C36.5139 18.6328 38.7874 20.4609 38.7874 23.5781C38.7874 26.7891 36.3733 28.5 31.7327 28.5H25.4983Z" fill="#702CF6"/>
<path d="M25.4983 43.5469H33.092C37.8264 43.5469 40.3342 41.625 40.3342 38.0391C40.3342 34.5 37.7327 32.6484 32.7874 32.6484H25.4983V43.5469Z" fill="#702CF6"/>
<path d="M16.0061 0C7.16955 0 0.00610352 7.16344 0.00610352 16V48C0.00610352 56.8366 7.16955 64 16.0061 64H48.0061C56.8427 64 64.0061 56.8366 64.0061 48V16C64.0061 7.16344 56.8427 0 48.0061 0H16.0061ZM20.2483 48V14.1797H33.842C40.1936 14.1797 44.0139 17.4141 44.0139 22.6172C44.0139 26.1562 41.4124 29.3203 38.0842 29.8828V30.2812C42.6545 30.75 45.7014 34.0078 45.7014 38.4141C45.7014 44.3672 41.3655 48 34.1467 48H20.2483Z" fill="#702CF6"/>
</svg>
