<svg width="70" height="64" viewBox="0 0 70 64" fill="none" xmlns="http://www.w3.org/2000/svg">
<g clip-path="url(#clip0_316_277)">
<path d="M34.9091 38.7725C38.5815 38.7725 41.5585 35.7404 41.5585 32C41.5585 28.2597 38.5815 25.2275 34.9091 25.2275C31.2368 25.2275 28.2598 28.2597 28.2598 32C28.2598 35.7404 31.2368 38.7725 34.9091 38.7725Z" fill="#087EA4"/>
<path d="M34.9091 47.2381C53.2708 47.2381 68.1559 40.4158 68.1559 32C68.1559 23.5842 53.2708 16.7619 34.9091 16.7619C16.5474 16.7619 1.66235 23.5842 1.66235 32C1.66235 40.4158 16.5474 47.2381 34.9091 47.2381Z" stroke="#087EA4" stroke-width="3"/>
<path d="M21.9524 39.6191C31.1332 55.8152 44.3767 65.5336 51.5324 61.3257C58.6882 57.1179 57.0465 40.5771 47.8657 24.381C38.6848 8.18481 25.4414 -1.5336 18.2857 2.67429C11.1299 6.88217 12.7716 23.4229 21.9524 39.6191Z" stroke="#087EA4" stroke-width="3"/>
<path d="M21.9525 24.381C12.7716 40.5771 11.13 57.1179 18.2857 61.3257C25.4415 65.5336 38.6849 55.8152 47.8658 39.6191C57.0466 23.4229 58.6883 6.88217 51.5325 2.67429C44.3767 -1.5336 31.1333 8.18481 21.9525 24.381Z" stroke="#087EA4" stroke-width="3"/>
</g>
<defs>
<clipPath id="clip0_316_277">
<rect width="69.8182" height="64" fill="white"/>
</clipPath>
</defs>
</svg>
