<svg width="64" height="64" viewBox="0 0 64 64" fill="none" xmlns="http://www.w3.org/2000/svg">
<path d="M44 16C52.8366 16 60 23.1634 60 32C60 40.8366 52.8366 48 44 48H32.0019C36.8586 44.3511 40 38.5424 40 32C40 25.4576 36.8586 19.6489 32.0019 16H44ZM20 48C11.1634 48 4 40.8366 4 32C4 23.1634 11.1634 16 20 16C28.8366 16 36 23.1634 36 32C36 40.8366 28.8366 48 20 48ZM0 32C0 43.0457 8.9543 52 20 52H44C55.0457 52 64 43.0457 64 32C64 20.9543 55.0457 12 44 12H20C8.95431 12 0 20.9543 0 32Z" fill="black"/>
</svg>
